<svg xmlns="http://www.w3.org/2000/svg" xmlns:xlink="http://www.w3.org/1999/xlink" version="1.1" id="Layer_1" x="0px" y="0px" width="100px" height="100px" viewBox="0 0 100 100" enable-background="new 0 0 100 100" xml:space="preserve">
<path fill="none" stroke="#000000" stroke-width="1.0464" stroke-miterlimit="10" d="M58.008,155.083"/>
<path fill="none" stroke="#000000" stroke-width="1.0464" stroke-miterlimit="10" d="M58.008,154.708"/>
<g>
	<path d="M44.94,27.226L15.417,23.48l-0.003,63.452l29.526,5.511V27.226z M28.178,86.513V57.079l3.121,0.337v29.667L28.178,86.513z    M19.57,28.126l21.19,2.696v6.446l-21.19-2.696V28.126z M19.57,37.269l21.19,2.696v6.446l-21.19-2.696V37.269z M19.57,46.411   l21.19,2.696v6.446l-21.19-2.696V46.411z"/>
	<polygon points="45.821,25.296 82.512,10.679 57.892,7.557 17.553,21.711  "/>
	<polygon points="46.966,27.02 46.966,92.09 84.586,71.925 84.586,12.032  "/>
</g>
</svg>